<svg preserveAspectRatio="none" overflow="visible" style="display: block;" width="44.02" height="51.59" viewBox="0 0 44.02 51.59" fill="none" xmlns="http://www.w3.org/2000/svg">
<g id="Background">
<rect x="5" y="1" width="34" height="41.59" rx="17" fill="#C89666"/>
<g id="Overlay+Shadow" filter="url(#filter0_dd_0_8)">
<rect x="5" y="1" width="34.02" height="41.59" rx="17.01" fill="white" fill-opacity="0.01" shape-rendering="crispEdges"/>
</g>
<path id="Icon" d="M15 27C14.45 27 13.9792 26.8042 13.5875 26.4125C13.1958 26.0208 13 25.55 13 25V21H15V25V25V25H19V27H15V27M25 27V25H29V25V25V21H31V25C31 25.55 30.8042 26.0208 30.4125 26.4125C30.0208 26.8042 29.55 27 29 27H25V27M13 15V11C13 10.45 13.1958 9.97917 13.5875 9.5875C13.9792 9.19583 14.45 9 15 9H19V11H15V11V11V15H13V15M29 15V11V11V11H25V9H29C29.55 9 30.0208 9.19583 30.4125 9.5875C30.8042 9.97917 31 10.45 31 11V15H29V15M22 23C20.6167 23 19.4375 22.5125 18.4625 21.5375C17.4875 20.5625 17 19.3833 17 18C17 16.6167 17.4875 15.4375 18.4625 14.4625C19.4375 13.4875 20.6167 13 22 13C23.3833 13 24.5625 13.4875 25.5375 14.4625C26.5125 15.4375 27 16.6167 27 18C27 19.3833 26.5125 20.5625 25.5375 21.5375C24.5625 22.5125 23.3833 23 22 23V23M22 21C22.8333 21 23.5417 20.7083 24.125 20.125C24.7083 19.5417 25 18.8333 25 18C25 17.1667 24.7083 16.4583 24.125 15.875C23.5417 15.2917 22.8333 15 22 15C21.1667 15 20.4583 15.2917 19.875 15.875C19.2917 16.4583 19 17.1667 19 18C19 18.8333 19.2917 19.5417 19.875 20.125C20.4583 20.7083 21.1667 21 22 21V21M22 18V18V18V18V18V18V18V18V18V18" fill="white"/>
</g>
<defs>
<filter id="filter0_dd_0_8" x="0" y="0" width="44.02" height="51.59" filterUnits="userSpaceOnUse" color-interpolation-filters="sRGB">
<feFlood flood-opacity="0" result="BackgroundImageFix"/>
<feColorMatrix in="SourceAlpha" type="matrix" values="0 0 0 0 0 0 0 0 0 0 0 0 0 0 0 0 0 0 127 0" result="hardAlpha"/>
<feMorphology radius="2" operator="erode" in="SourceAlpha" result="effect1_dropShadow_0_8"/>
<feOffset dy="2"/>
<feGaussianBlur stdDeviation="2"/>
<feComposite in2="hardAlpha" operator="out"/>
<feColorMatrix type="matrix" values="0 0 0 0 0 0 0 0 0 0 0 0 0 0 0 0 0 0 0.1 0"/>
<feBlend mode="normal" in2="BackgroundImageFix" result="effect1_dropShadow_0_8"/>
<feColorMatrix in="SourceAlpha" type="matrix" values="0 0 0 0 0 0 0 0 0 0 0 0 0 0 0 0 0 0 127 0" result="hardAlpha"/>
<feMorphology radius="1" operator="erode" in="SourceAlpha" result="effect2_dropShadow_0_8"/>
<feOffset dy="4"/>
<feGaussianBlur stdDeviation="3"/>
<feComposite in2="hardAlpha" operator="out"/>
<feColorMatrix type="matrix" values="0 0 0 0 0 0 0 0 0 0 0 0 0 0 0 0 0 0 0.1 0"/>
<feBlend mode="normal" in2="effect1_dropShadow_0_8" result="effect2_dropShadow_0_8"/>
<feBlend mode="normal" in="SourceGraphic" in2="effect2_dropShadow_0_8" result="shape"/>
</filter>
</defs>
</svg>
